<svg id="svg" version="1.1" xmlns="http://www.w3.org/2000/svg" xmlns:xlink="http://www.w3.org/1999/xlink" width="400" height="400" viewBox="0, 0, 400,400"><g id="svgg"><path id="path0" d="M187.700 0.276 C 188.085 0.376,188.715 0.376,189.100 0.276 C 189.485 0.175,189.170 0.093,188.400 0.093 C 187.630 0.093,187.315 0.175,187.700 0.276 M210.900 0.276 C 211.285 0.376,211.915 0.376,212.300 0.276 C 212.685 0.175,212.370 0.093,211.600 0.093 C 210.830 0.093,210.515 0.175,210.900 0.276 M124.812 13.984 C 124.488 14.189,124.321 14.454,124.441 14.574 C 124.560 14.694,125.005 14.529,125.429 14.209 C 126.273 13.571,125.760 13.385,124.812 13.984 M120.012 15.984 C 119.688 16.189,119.521 16.454,119.641 16.574 C 119.760 16.694,120.205 16.529,120.629 16.209 C 121.473 15.571,120.960 15.385,120.012 15.984 M280.000 16.424 C 280.000 16.657,280.180 16.736,280.400 16.600 C 280.620 16.464,280.800 16.505,280.800 16.691 C 280.800 16.877,281.205 17.057,281.700 17.091 C 282.576 17.150,282.573 17.137,281.600 16.590 C 280.385 15.907,280.000 15.867,280.000 16.424 M118.057 16.756 C 117.679 16.996,117.649 17.183,117.957 17.374 C 118.201 17.524,118.400 17.446,118.400 17.200 C 118.400 16.954,118.580 16.864,118.800 17.000 C 119.020 17.136,119.200 17.057,119.200 16.824 C 119.200 16.314,118.792 16.290,118.057 16.756 M115.000 18.072 C 114.120 18.532,113.340 19.065,113.266 19.257 C 113.192 19.448,112.967 19.503,112.766 19.379 C 112.565 19.255,112.400 19.354,112.400 19.600 C 112.400 19.846,112.265 19.965,112.100 19.866 C 111.935 19.766,111.568 19.935,111.284 20.242 C 111.001 20.549,110.863 20.800,110.978 20.800 C 111.502 20.800,117.200 17.790,117.200 17.512 C 117.200 17.041,116.756 17.154,115.000 18.072 M282.800 17.517 C 282.800 17.792,286.897 20.000,287.409 20.000 C 287.514 20.000,287.600 19.809,287.600 19.576 C 287.600 19.343,287.420 19.264,287.200 19.400 C 286.980 19.536,286.800 19.492,286.800 19.303 C 286.800 19.114,285.985 18.564,284.989 18.080 C 282.984 17.105,282.800 17.058,282.800 17.517 M104.700 23.627 C 103.875 24.063,103.200 24.508,103.200 24.618 C 103.200 24.727,103.920 24.449,104.800 24.000 C 105.680 23.551,106.400 23.097,106.400 22.992 C 106.400 22.730,106.397 22.731,104.700 23.627 M294.400 23.379 C 294.400 23.489,294.940 23.859,295.600 24.200 C 296.260 24.541,296.800 24.731,296.800 24.621 C 296.800 24.511,296.260 24.141,295.600 23.800 C 294.940 23.459,294.400 23.269,294.400 23.379 M98.600 26.876 C 95.747 28.487,88.387 33.321,88.546 33.479 C 88.652 33.585,89.830 32.931,91.164 32.025 C 92.498 31.119,95.076 29.483,96.895 28.390 C 99.681 26.713,101.069 25.482,98.600 26.876 M303.105 28.390 C 304.924 29.483,307.502 31.119,308.836 32.025 C 310.170 32.931,311.348 33.585,311.454 33.479 C 311.758 33.175,300.915 26.399,300.126 26.401 C 299.947 26.401,301.287 27.296,303.105 28.390 M86.300 34.702 C 85.475 35.256,84.800 35.885,84.800 36.102 C 84.800 36.413,86.086 35.613,87.967 34.131 C 88.818 33.460,87.456 33.927,86.300 34.702 M76.318 42.127 C 70.925 46.455,71.058 46.808,76.516 42.652 C 78.212 41.360,79.600 40.145,79.600 39.952 C 79.600 39.471,79.761 39.364,76.318 42.127 M320.451 39.902 C 320.696 40.555,327.600 45.917,327.600 45.454 C 327.600 45.348,325.958 43.966,323.951 42.383 C 321.944 40.800,320.369 39.683,320.451 39.902 M68.800 48.443 C 67.370 49.779,66.920 50.320,67.800 49.645 C 70.536 47.546,72.217 46.022,71.800 46.017 C 71.580 46.015,70.230 47.106,68.800 48.443 M328.000 46.154 C 328.000 46.239,328.495 46.627,329.100 47.016 L 330.200 47.724 329.438 46.862 C 328.764 46.099,328.000 45.723,328.000 46.154 M330.400 48.133 C 330.400 48.206,331.165 48.866,332.100 49.598 L 333.800 50.930 332.422 49.465 C 331.238 48.207,330.400 47.655,330.400 48.133 M62.589 54.074 L 59.800 56.948 62.700 54.433 C 65.112 52.341,66.096 51.200,65.489 51.200 C 65.428 51.200,64.123 52.493,62.589 54.074 M334.400 51.560 C 334.400 51.759,335.525 52.872,336.900 54.034 L 339.400 56.147 337.013 53.674 C 334.496 51.066,334.400 50.989,334.400 51.560 M345.628 62.800 C 346.997 64.340,348.310 65.600,348.548 65.600 C 348.785 65.600,347.728 64.340,346.200 62.800 C 344.672 61.260,343.358 60.000,343.280 60.000 C 343.203 60.000,344.259 61.260,345.628 62.800 M53.588 63.047 C 52.165 64.503,51.256 65.618,51.568 65.524 C 52.088 65.369,56.715 60.400,56.340 60.400 C 56.250 60.400,55.012 61.591,53.588 63.047 M48.234 68.944 C 47.005 70.344,46.005 71.649,46.011 71.844 C 46.021 72.188,47.082 71.036,49.643 67.900 C 51.633 65.462,50.654 66.188,48.234 68.944 M350.861 68.341 C 351.818 69.518,352.911 70.868,353.291 71.341 C 353.671 71.813,353.983 72.020,353.985 71.800 C 353.986 71.580,352.892 70.230,351.555 68.800 C 349.401 66.497,349.322 66.445,350.861 68.341 M42.422 76.000 C 40.860 77.980,39.727 79.600,39.904 79.600 C 40.187 79.600,44.479 74.312,45.320 72.927 C 46.215 71.452,44.957 72.786,42.422 76.000 M354.680 72.927 C 355.521 74.312,359.813 79.600,360.096 79.600 C 360.273 79.600,359.140 77.980,357.578 76.000 C 355.043 72.786,353.785 71.452,354.680 72.927 M35.600 85.000 C 34.919 85.990,34.516 86.800,34.704 86.800 C 34.892 86.800,35.617 85.990,36.315 85.000 C 37.013 84.010,37.416 83.200,37.211 83.200 C 37.006 83.200,36.281 84.010,35.600 85.000 M364.704 86.385 C 366.141 88.462,366.726 88.476,365.353 86.400 C 364.770 85.520,364.139 84.800,363.951 84.800 C 363.762 84.800,364.101 85.513,364.704 86.385 M203.000 88.068 C 203.440 88.312,204.079 88.712,204.420 88.956 C 204.760 89.200,204.615 88.995,204.097 88.500 C 203.579 88.005,202.940 87.605,202.678 87.612 C 202.415 87.619,202.560 87.824,203.000 88.068 M30.303 93.077 C 27.090 98.163,26.400 99.366,26.401 99.874 C 26.401 100.053,27.296 98.713,28.390 96.895 C 29.483 95.076,31.119 92.498,32.025 91.164 C 32.931 89.830,33.585 88.652,33.479 88.546 C 33.373 88.440,31.944 90.479,30.303 93.077 M197.355 89.412 C 196.990 89.969,196.764 90.498,196.853 90.587 C 196.942 90.676,197.318 90.220,197.689 89.574 C 198.514 88.136,198.269 88.017,197.355 89.412 M366.400 88.542 C 366.400 88.708,367.125 89.912,368.011 91.216 C 368.897 92.521,370.517 95.076,371.610 96.895 C 372.704 98.713,373.599 99.999,373.599 99.754 C 373.600 99.312,367.493 89.347,366.775 88.620 C 366.569 88.411,366.400 88.376,366.400 88.542 M205.780 104.600 C 205.780 112.080,205.834 115.083,205.899 111.274 C 205.965 107.465,205.965 101.345,205.899 97.674 C 205.833 94.003,205.779 97.120,205.780 104.600 M162.127 96.047 C 162.527 96.280,163.202 97.039,163.626 97.735 C 164.050 98.431,164.398 98.789,164.399 98.531 C 164.401 97.872,162.426 95.597,161.864 95.612 C 161.609 95.619,161.727 95.815,162.127 96.047 M246.100 98.670 C 245.605 99.015,245.200 99.546,245.200 99.849 C 245.200 100.152,245.050 100.400,244.867 100.400 C 244.683 100.400,244.525 100.625,244.514 100.900 C 244.504 101.175,244.374 101.760,244.225 102.200 C 244.077 102.640,244.413 102.157,244.972 101.127 C 245.531 100.097,246.391 98.972,246.883 98.627 C 247.375 98.282,247.603 98.009,247.389 98.021 C 247.175 98.033,246.595 98.324,246.100 98.670 M252.557 100.633 C 252.691 100.981,252.800 101.351,252.800 101.456 C 252.800 101.561,252.972 101.541,253.183 101.411 C 253.647 101.124,253.274 100.000,252.714 100.000 C 252.494 100.000,252.424 100.285,252.557 100.633 M23.600 104.800 C 23.151 105.680,22.874 106.400,22.984 106.400 C 23.094 106.400,23.551 105.680,24.000 104.800 C 24.449 103.920,24.726 103.200,24.616 103.200 C 24.506 103.200,24.049 103.920,23.600 104.800 M243.200 103.350 C 243.200 103.433,242.752 104.513,242.205 105.750 C 240.922 108.652,241.497 108.686,242.917 105.791 C 244.131 103.315,244.161 103.200,243.600 103.200 C 243.380 103.200,243.200 103.268,243.200 103.350 M376.200 105.200 C 376.757 106.300,377.303 107.200,377.413 107.200 C 377.523 107.200,377.157 106.300,376.600 105.200 C 376.043 104.100,375.497 103.200,375.387 103.200 C 375.277 103.200,375.643 104.100,376.200 105.200 M250.672 108.619 C 249.732 110.589,249.864 110.924,250.847 109.062 C 251.293 108.216,251.587 107.454,251.501 107.367 C 251.414 107.281,251.041 107.844,250.672 108.619 M240.064 110.219 C 239.511 111.433,239.495 111.600,239.936 111.600 C 240.227 111.600,241.200 109.892,241.200 109.381 C 241.200 108.805,240.459 109.352,240.064 110.219 M20.021 111.571 C 19.726 111.981,19.525 112.450,19.576 112.613 C 19.627 112.777,19.497 113.021,19.288 113.155 C 18.720 113.521,17.109 116.842,17.372 117.105 C 17.687 117.421,17.722 117.368,19.379 114.059 C 20.814 111.193,21.104 110.068,20.021 111.571 M379.200 111.008 C 379.200 111.154,380.053 112.922,381.096 114.936 C 382.139 116.951,382.949 118.735,382.896 118.900 C 382.843 119.065,382.980 119.200,383.200 119.200 C 383.795 119.200,383.737 119.009,382.024 115.354 C 380.653 112.430,379.200 110.193,379.200 111.008 M248.475 113.419 C 247.270 115.900,247.405 116.247,248.646 113.861 C 249.201 112.794,249.587 111.853,249.503 111.770 C 249.419 111.686,248.957 112.428,248.475 113.419 M159.606 112.300 C 159.617 112.847,160.353 113.781,160.588 113.546 C 160.903 113.231,160.401 112.000,159.957 112.000 C 159.761 112.000,159.603 112.135,159.606 112.300 M160.406 114.300 C 160.417 114.847,161.153 115.781,161.388 115.546 C 161.703 115.231,161.201 114.000,160.757 114.000 C 160.561 114.000,160.403 114.135,160.406 114.300 M161.509 116.225 C 161.354 116.379,161.440 116.887,161.699 117.353 C 161.958 117.819,162.132 118.335,162.085 118.500 C 162.038 118.665,162.191 118.800,162.424 118.800 C 162.657 118.800,162.744 118.968,162.617 119.172 C 162.491 119.377,162.570 119.658,162.793 119.796 C 163.376 120.156,163.246 119.238,162.465 117.472 C 162.093 116.632,161.663 116.070,161.509 116.225 M246.475 117.819 C 245.270 120.300,245.405 120.647,246.646 118.261 C 247.201 117.194,247.587 116.253,247.503 116.170 C 247.419 116.086,246.957 116.828,246.475 117.819 M16.642 118.235 C 16.313 119.092,16.333 119.200,16.824 119.200 C 17.057 119.200,17.145 119.035,17.021 118.834 C 16.897 118.633,17.012 118.396,17.278 118.307 C 17.617 118.194,17.630 118.066,17.322 117.876 C 17.081 117.727,16.775 117.888,16.642 118.235 M196.832 118.878 C 196.815 119.250,197.272 120.060,197.850 120.678 C 198.427 121.295,198.652 121.459,198.350 121.042 C 198.047 120.625,197.590 119.815,197.332 119.242 C 197.016 118.537,196.854 118.419,196.832 118.878 M204.489 120.317 L 203.579 121.800 204.589 120.678 C 205.145 120.060,205.600 119.385,205.600 119.178 C 205.600 118.590,205.465 118.728,204.489 120.317 M235.000 121.494 C 233.833 124.235,233.835 124.448,235.007 122.270 C 235.579 121.208,235.991 120.176,235.923 119.976 C 235.855 119.777,235.440 120.460,235.000 121.494 M120.000 120.850 C 120.000 121.043,120.551 121.200,121.224 121.200 C 121.897 121.200,122.350 121.043,122.231 120.850 C 122.112 120.658,121.561 120.500,121.007 120.500 C 120.453 120.500,120.000 120.658,120.000 120.850 M172.957 121.833 C 173.091 122.181,173.200 122.641,173.200 122.856 C 173.200 123.071,173.389 123.131,173.619 122.988 C 173.910 122.808,173.911 122.575,173.623 122.228 C 173.394 121.952,173.325 121.608,173.470 121.463 C 173.615 121.318,173.504 121.200,173.224 121.200 C 172.924 121.200,172.814 121.460,172.957 121.833 M284.000 121.576 C 284.000 121.783,284.198 122.075,284.440 122.224 C 284.681 122.374,285.124 123.059,285.424 123.748 C 285.724 124.437,285.975 124.730,285.983 124.400 C 285.998 123.776,284.567 121.200,284.206 121.200 C 284.093 121.200,284.000 121.369,284.000 121.576 M132.747 130.879 C 137.887 135.969,142.432 140.689,142.845 141.367 C 143.427 142.321,143.597 142.426,143.599 141.831 C 143.600 141.103,124.391 121.585,123.699 121.611 C 123.535 121.618,127.606 125.788,132.747 130.879 M268.964 130.951 C 260.226 139.713,258.425 141.758,258.968 142.301 C 259.095 142.429,259.200 142.287,259.200 141.985 C 259.200 141.683,263.650 136.973,269.089 131.518 C 274.529 126.063,278.804 121.620,278.589 121.645 C 278.375 121.670,274.044 125.857,268.964 130.951 M116.636 123.231 C 116.066 123.908,115.607 124.673,115.616 124.931 C 115.625 125.189,115.901 124.905,116.229 124.300 C 116.557 123.695,116.981 123.200,117.170 123.200 C 117.359 123.200,117.618 122.930,117.745 122.600 C 118.093 121.693,117.780 121.871,116.636 123.231 M242.865 125.817 C 242.195 127.288,242.323 127.602,243.047 126.265 C 243.386 125.640,243.588 125.054,243.496 124.963 C 243.405 124.871,243.121 125.256,242.865 125.817 M172.024 126.477 C 171.095 127.651,171.090 127.687,171.915 127.245 C 172.791 126.777,173.894 125.181,173.314 125.222 C 173.141 125.234,172.561 125.799,172.024 126.477 M165.200 125.868 C 165.200 126.379,166.735 127.798,167.001 127.532 C 167.109 127.425,166.748 126.914,166.198 126.399 C 165.649 125.883,165.200 125.644,165.200 125.868 M279.341 133.000 C 271.488 140.776,263.901 148.833,268.414 144.602 C 276.578 136.950,285.988 127.335,285.555 127.088 C 285.470 127.040,282.673 129.700,279.341 133.000 M115.601 127.530 C 115.600 128.151,119.936 132.800,120.517 132.800 C 120.735 132.800,120.052 132.042,118.999 131.116 C 117.947 130.189,116.752 128.884,116.344 128.216 C 115.937 127.547,115.602 127.238,115.601 127.530 M234.260 128.211 C 234.389 128.547,234.878 129.022,235.347 129.265 C 236.132 129.673,236.122 129.624,235.230 128.654 C 234.115 127.442,233.932 127.358,234.260 128.211 M241.179 128.622 C 240.651 129.184,240.488 129.541,240.818 129.414 C 241.339 129.215,242.634 127.600,242.273 127.600 C 242.200 127.600,241.707 128.060,241.179 128.622 M124.400 136.726 C 124.400 136.905,126.965 139.470,130.100 142.426 L 135.800 147.800 130.400 142.100 C 125.339 136.758,124.400 135.917,124.400 136.726 M143.200 144.703 C 143.200 144.942,142.711 145.737,142.114 146.469 C 141.221 147.564,141.192 147.659,141.951 147.004 C 143.029 146.075,143.765 144.831,143.432 144.499 C 143.305 144.371,143.200 144.463,143.200 144.703 M259.600 146.196 C 259.600 146.470,262.049 147.684,262.232 147.501 C 262.319 147.414,261.762 147.044,260.995 146.678 C 260.228 146.312,259.600 146.095,259.600 146.196 M218.800 146.958 C 219.350 147.296,220.055 147.578,220.367 147.586 C 221.018 147.602,220.622 147.085,219.888 146.960 C 219.620 146.915,219.040 146.757,218.600 146.611 C 218.053 146.429,218.117 146.539,218.800 146.958 M182.200 147.094 C 181.760 147.205,181.040 147.561,180.600 147.885 C 179.596 148.625,181.115 148.266,182.800 147.366 C 183.820 146.821,183.628 146.734,182.200 147.094 M226.600 150.680 C 227.298 151.340,231.191 154.000,231.458 154.000 C 231.830 154.000,228.380 151.419,227.200 150.814 C 226.650 150.533,226.380 150.472,226.600 150.680 M199.783 152.373 C 200.067 152.832,202.350 152.805,202.638 152.339 C 202.753 152.152,202.106 152.000,201.200 152.000 C 200.283 152.000,199.655 152.165,199.783 152.373 M234.434 157.023 C 235.882 158.550,237.637 160.546,238.334 161.458 C 239.031 162.371,240.096 163.647,240.701 164.294 C 241.305 164.942,242.609 167.017,243.598 168.905 C 244.586 170.793,245.454 172.280,245.525 172.209 C 245.984 171.750,239.548 161.200,238.809 161.200 C 238.584 161.200,238.400 160.970,238.400 160.688 C 238.400 160.407,237.275 159.091,235.900 157.765 C 232.253 154.246,231.381 153.805,234.434 157.023 M167.274 157.161 C 165.913 158.460,164.800 159.750,164.800 160.028 C 164.800 160.306,164.845 160.454,164.900 160.356 C 164.955 160.259,166.165 158.969,167.588 157.490 C 170.784 154.169,170.604 153.982,167.274 157.161 M184.812 155.584 C 184.488 155.789,184.321 156.054,184.441 156.174 C 184.560 156.294,185.005 156.129,185.429 155.809 C 186.273 155.171,185.760 154.985,184.812 155.584 M293.200 156.200 C 292.210 156.730,291.580 157.164,291.800 157.164 C 292.020 157.164,293.010 156.730,294.000 156.200 C 294.990 155.670,295.620 155.236,295.400 155.236 C 295.180 155.236,294.190 155.670,293.200 156.200 M181.371 157.371 C 180.948 157.681,180.704 158.037,180.830 158.163 C 180.956 158.289,181.405 158.138,181.829 157.829 C 182.252 157.519,182.496 157.163,182.370 157.037 C 182.244 156.911,181.795 157.062,181.371 157.371 M220.000 157.224 C 220.000 157.457,220.180 157.536,220.400 157.400 C 220.620 157.264,220.800 157.343,220.800 157.576 C 220.800 157.809,221.055 158.000,221.367 158.000 C 221.678 158.000,221.993 158.135,222.067 158.300 C 222.140 158.465,223.280 159.400,224.600 160.379 C 225.920 161.357,228.080 163.140,229.400 164.341 C 230.720 165.541,230.222 164.966,228.294 163.062 C 226.366 161.158,224.611 159.600,224.394 159.600 C 224.177 159.600,224.000 159.437,224.000 159.238 C 224.000 158.904,220.746 156.800,220.229 156.800 C 220.103 156.800,220.000 156.991,220.000 157.224 M307.002 158.526 C 305.932 160.267,305.821 160.558,306.351 160.230 C 306.858 159.917,308.137 157.603,307.922 157.389 C 307.847 157.313,307.433 157.825,307.002 158.526 M285.400 159.867 C 282.232 161.482,282.182 161.516,282.495 161.828 C 282.730 162.063,286.045 160.516,286.400 160.004 C 286.510 159.846,287.140 159.427,287.800 159.074 C 290.191 157.794,288.128 158.476,285.400 159.867 M177.400 160.000 C 176.768 160.660,176.381 161.200,176.541 161.200 C 177.002 161.200,179.200 159.484,179.200 159.125 C 179.200 158.492,178.535 158.815,177.400 160.000 M163.467 161.067 C 162.868 161.666,163.173 162.520,163.800 162.000 C 164.130 161.726,164.400 161.344,164.400 161.151 C 164.400 160.737,163.847 160.687,163.467 161.067 M173.200 163.800 C 172.005 165.010,171.207 166.000,171.427 166.000 C 171.647 166.000,172.805 165.010,174.000 163.800 C 175.195 162.590,175.993 161.600,175.773 161.600 C 175.553 161.600,174.395 162.590,173.200 163.800 M280.400 162.490 C 280.400 162.687,280.220 162.736,280.000 162.600 C 279.780 162.464,279.600 162.543,279.600 162.776 C 279.600 163.349,280.098 163.309,280.976 162.667 C 281.608 162.205,281.619 162.133,281.053 162.133 C 280.694 162.133,280.400 162.294,280.400 162.490 M160.953 164.700 C 159.058 167.616,158.472 168.840,159.467 167.800 C 160.347 166.882,162.800 163.369,162.800 163.028 C 162.800 162.338,162.041 163.024,160.953 164.700 M296.400 164.600 C 291.977 166.889,292.467 166.894,297.250 164.608 C 299.313 163.623,300.730 162.822,300.400 162.828 C 300.070 162.835,298.270 163.632,296.400 164.600 M90.432 165.139 C 89.779 166.360,89.914 166.700,90.641 165.663 C 90.993 165.160,91.188 164.654,91.073 164.540 C 90.959 164.425,90.670 164.695,90.432 165.139 M98.800 164.793 C 99.479 165.240,100.681 165.347,100.256 164.923 C 100.104 164.771,99.579 164.590,99.090 164.522 C 98.384 164.423,98.324 164.479,98.800 164.793 M276.432 165.139 C 275.779 166.360,275.914 166.700,276.641 165.663 C 276.993 165.160,277.188 164.654,277.073 164.540 C 276.959 164.425,276.670 164.695,276.432 165.139 M169.519 168.100 C 168.098 169.994,167.772 170.794,168.991 169.400 C 170.081 168.153,170.950 166.800,170.662 166.800 C 170.570 166.800,170.056 167.385,169.519 168.100 M233.093 168.800 C 233.756 169.790,234.949 171.770,235.745 173.200 C 236.540 174.630,237.193 175.604,237.195 175.364 C 237.201 174.786,233.339 168.366,232.525 167.600 C 232.174 167.270,232.429 167.810,233.093 168.800 M288.400 168.400 C 287.190 169.039,286.380 169.562,286.600 169.562 C 286.820 169.562,287.990 169.039,289.200 168.400 C 290.410 167.761,291.220 167.238,291.000 167.238 C 290.780 167.238,289.610 167.761,288.400 168.400 M90.000 169.047 C 90.000 169.267,90.264 169.796,90.587 170.224 C 90.910 170.651,91.175 170.820,91.175 170.600 C 91.175 170.380,90.910 169.851,90.587 169.424 C 90.264 168.996,90.000 168.827,90.000 169.047 M112.800 169.533 C 113.130 169.736,113.850 170.024,114.400 170.171 C 115.095 170.357,115.217 170.325,114.800 170.067 C 114.470 169.864,113.750 169.576,113.200 169.429 C 112.505 169.243,112.383 169.275,112.800 169.533 M166.179 173.641 C 165.392 175.204,164.814 176.547,164.894 176.627 C 164.973 176.707,165.703 175.428,166.516 173.786 C 167.329 172.144,167.907 170.800,167.802 170.800 C 167.696 170.800,166.966 172.078,166.179 173.641 M279.700 171.876 C 280.085 171.976,280.715 171.976,281.100 171.876 C 281.485 171.775,281.170 171.693,280.400 171.693 C 279.630 171.693,279.315 171.775,279.700 171.876 M99.768 174.348 C 99.926 174.604,100.210 174.717,100.400 174.600 C 100.590 174.483,100.860 174.573,101.000 174.800 C 101.140 175.027,101.410 175.117,101.600 175.000 C 101.790 174.883,102.058 174.970,102.196 175.193 C 102.334 175.417,102.842 175.585,103.324 175.567 C 104.066 175.540,104.010 175.451,102.956 174.989 C 100.960 174.114,99.433 173.807,99.768 174.348 M164.046 178.439 C 163.801 179.143,163.613 179.918,163.628 180.160 C 163.644 180.402,163.914 179.896,164.230 179.035 C 164.545 178.174,164.733 177.400,164.648 177.315 C 164.562 177.229,164.292 177.735,164.046 178.439 M240.000 187.800 C 240.000 188.350,240.180 188.800,240.400 188.800 C 240.620 188.800,240.800 188.350,240.800 187.800 C 240.800 187.250,240.620 186.800,240.400 186.800 C 240.180 186.800,240.000 187.250,240.000 187.800 M0.093 188.400 C 0.093 189.170,0.175 189.485,0.276 189.100 C 0.376 188.715,0.376 188.085,0.276 187.700 C 0.175 187.315,0.093 187.630,0.093 188.400 M399.693 188.400 C 399.693 189.170,399.775 189.485,399.876 189.100 C 399.976 188.715,399.976 188.085,399.876 187.700 C 399.775 187.315,399.693 187.630,399.693 188.400 M162.101 189.400 C 162.105 190.280,162.187 190.593,162.283 190.095 C 162.379 189.598,162.375 188.878,162.275 188.495 C 162.175 188.113,162.096 188.520,162.101 189.400 M249.340 191.200 C 249.340 193.070,249.409 193.835,249.493 192.900 C 249.577 191.965,249.577 190.435,249.493 189.500 C 249.409 188.565,249.340 189.330,249.340 191.200 M152.920 191.200 C 152.920 192.410,152.995 192.905,153.087 192.300 C 153.178 191.695,153.178 190.705,153.087 190.100 C 152.995 189.495,152.920 189.990,152.920 191.200 M162.093 193.200 C 162.093 193.970,162.175 194.285,162.276 193.900 C 162.376 193.515,162.376 192.885,162.276 192.500 C 162.175 192.115,162.093 192.430,162.093 193.200 M240.000 194.400 C 240.000 194.840,240.180 195.200,240.400 195.200 C 240.620 195.200,240.800 194.840,240.800 194.400 C 240.800 193.960,240.620 193.600,240.400 193.600 C 240.180 193.600,240.000 193.960,240.000 194.400 M308.900 197.087 C 309.505 197.178,310.495 197.178,311.100 197.087 C 311.705 196.995,311.210 196.920,310.000 196.920 C 308.790 196.920,308.295 196.995,308.900 197.087 M297.507 197.490 C 298.226 197.579,299.306 197.577,299.907 197.486 C 300.508 197.395,299.920 197.322,298.600 197.324 C 297.280 197.326,296.788 197.401,297.507 197.490 M317.200 198.200 C 317.717 198.750,318.319 199.200,318.539 199.200 C 318.759 199.200,318.517 198.750,318.000 198.200 C 317.483 197.650,316.881 197.200,316.661 197.200 C 316.441 197.200,316.683 197.650,317.200 198.200 M286.079 198.700 C 285.634 199.085,285.150 199.850,285.004 200.400 C 284.771 201.275,284.838 201.242,285.542 200.135 C 285.984 199.439,286.673 198.680,287.073 198.447 C 287.473 198.215,287.595 198.019,287.344 198.012 C 287.094 198.005,286.524 198.315,286.079 198.700 M318.400 200.200 C 318.400 200.530,318.580 200.800,318.800 200.800 C 319.020 200.800,319.200 200.530,319.200 200.200 C 319.200 199.870,319.020 199.600,318.800 199.600 C 318.580 199.600,318.400 199.870,318.400 200.200 M106.800 204.000 C 105.559 204.261,105.664 204.301,107.724 204.347 C 109.183 204.380,109.955 204.251,109.800 204.000 C 109.527 203.559,108.896 203.559,106.800 204.000 M114.223 203.963 C 114.105 204.153,114.404 204.412,114.887 204.539 C 116.036 204.839,116.145 204.683,115.200 204.093 C 114.781 203.831,114.341 203.772,114.223 203.963 M317.549 204.261 C 317.247 204.625,316.460 205.158,315.800 205.446 C 315.140 205.733,314.834 205.976,315.120 205.984 C 315.406 205.993,316.139 205.742,316.749 205.426 C 317.982 204.789,319.120 203.600,318.498 203.600 C 318.278 203.600,317.851 203.898,317.549 204.261 M95.200 204.400 C 93.898 204.674,93.947 204.698,95.900 204.747 C 97.068 204.777,98.000 204.623,98.000 204.400 C 98.000 203.958,97.302 203.958,95.200 204.400 M84.621 206.146 C 84.059 206.666,83.601 207.431,83.601 207.846 C 83.603 208.409,83.798 208.280,84.374 207.335 C 84.798 206.639,85.473 205.880,85.873 205.647 C 86.273 205.415,86.384 205.219,86.121 205.212 C 85.857 205.205,85.182 205.626,84.621 206.146 M116.873 206.200 C 117.320 207.181,118.000 207.561,118.000 206.829 C 118.000 206.463,116.898 205.200,116.580 205.200 C 116.490 205.200,116.622 205.650,116.873 206.200 M286.576 206.213 C 287.004 206.536,287.634 206.799,287.976 206.798 C 288.319 206.796,288.084 206.526,287.454 206.198 C 286.004 205.441,285.566 205.449,286.576 206.213 M306.500 206.287 C 307.105 206.378,308.095 206.378,308.700 206.287 C 309.305 206.195,308.810 206.120,307.600 206.120 C 306.390 206.120,305.895 206.195,306.500 206.287 M294.707 206.690 C 295.426 206.779,296.506 206.777,297.107 206.686 C 297.708 206.595,297.120 206.522,295.800 206.524 C 294.480 206.526,293.988 206.601,294.707 206.690 M117.043 210.233 C 116.667 211.211,116.749 211.341,117.400 210.800 C 118.065 210.248,118.196 209.600,117.643 209.600 C 117.446 209.600,117.176 209.885,117.043 210.233 M83.616 210.625 C 83.596 211.648,85.570 213.601,86.622 213.599 C 87.223 213.597,87.109 213.420,86.123 212.819 C 85.421 212.390,84.573 211.536,84.239 210.920 C 83.716 209.955,83.630 209.914,83.616 210.625 M0.093 211.600 C 0.093 212.370,0.175 212.685,0.276 212.300 C 0.376 211.915,0.376 211.285,0.276 210.900 C 0.175 210.515,0.093 210.830,0.093 211.600 M399.693 211.600 C 399.693 212.370,399.775 212.685,399.876 212.300 C 399.976 211.915,399.976 211.285,399.876 210.900 C 399.775 210.515,399.693 210.830,399.693 211.600 M244.286 214.086 C 243.921 215.225,243.690 216.223,243.771 216.304 C 243.852 216.385,244.225 215.529,244.600 214.400 C 244.975 213.271,245.206 212.273,245.115 212.181 C 245.023 212.090,244.650 212.947,244.286 214.086 M103.350 213.084 C 103.636 213.370,106.857 213.268,107.167 212.964 C 107.258 212.874,106.373 212.800,105.200 212.800 C 104.027 212.800,103.194 212.928,103.350 213.084 M91.821 213.581 C 92.052 213.812,92.991 213.830,94.201 213.628 L 96.200 213.294 93.820 213.247 C 92.312 213.217,91.580 213.340,91.821 213.581 M159.206 216.671 C 159.218 217.284,159.955 218.178,160.226 217.907 C 160.374 217.759,160.204 217.347,159.848 216.990 C 159.491 216.634,159.203 216.491,159.206 216.671 M170.828 221.400 C 170.828 221.620,171.086 222.250,171.400 222.800 C 171.714 223.350,171.972 223.620,171.972 223.400 C 171.972 223.180,171.714 222.550,171.400 222.000 C 171.086 221.450,170.828 221.180,170.828 221.400 M162.684 225.200 C 162.799 225.640,163.052 226.000,163.247 226.000 C 163.665 226.000,163.679 225.872,163.357 225.033 C 163.005 224.114,162.437 224.255,162.684 225.200 M230.465 225.417 C 229.795 226.888,229.923 227.202,230.647 225.865 C 230.986 225.240,231.188 224.654,231.096 224.563 C 231.005 224.471,230.721 224.856,230.465 225.417 M172.428 225.000 C 172.428 225.220,172.686 225.850,173.000 226.400 C 173.314 226.950,173.572 227.220,173.572 227.000 C 173.572 226.780,173.314 226.150,173.000 225.600 C 172.686 225.050,172.428 224.780,172.428 225.000 M239.443 226.233 C 239.121 227.072,239.135 227.200,239.553 227.200 C 239.748 227.200,240.001 226.840,240.116 226.400 C 240.363 225.455,239.795 225.314,239.443 226.233 M164.122 228.400 C 164.372 229.060,164.716 229.600,164.888 229.600 C 165.303 229.600,165.284 229.421,164.736 228.219 C 164.085 226.791,163.572 226.942,164.122 228.400 M238.233 229.057 C 237.899 229.930,238.343 230.336,238.816 229.588 C 239.289 228.840,239.299 228.400,238.843 228.400 C 238.646 228.400,238.372 228.696,238.233 229.057 M174.400 229.381 C 174.400 229.481,174.609 230.021,174.864 230.581 C 175.515 232.009,176.028 231.858,175.478 230.400 C 175.100 229.400,174.400 228.738,174.400 229.381 M281.744 230.769 C 280.483 231.538,279.694 232.400,280.251 232.400 C 280.414 232.400,280.961 232.012,281.466 231.538 C 281.970 231.065,283.062 230.545,283.891 230.384 C 285.282 230.115,285.306 230.089,284.200 230.047 C 283.540 230.023,282.435 230.348,281.744 230.769 M237.264 231.419 C 236.705 232.645,236.694 232.800,237.161 232.800 C 237.359 232.800,237.710 232.260,237.940 231.600 C 238.449 230.141,237.912 229.997,237.264 231.419 M165.619 230.849 C 165.581 231.350,167.273 234.861,167.461 234.672 C 167.568 234.566,167.201 233.606,166.646 232.539 C 166.091 231.473,165.629 230.712,165.619 230.849 M236.064 234.219 C 235.511 235.433,235.495 235.600,235.936 235.600 C 236.227 235.600,237.200 233.892,237.200 233.381 C 237.200 232.805,236.459 233.352,236.064 234.219 M226.418 234.366 C 226.173 234.825,226.139 235.200,226.343 235.200 C 226.754 235.200,227.322 233.988,227.042 233.708 C 226.944 233.611,226.664 233.907,226.418 234.366 M167.638 235.400 C 167.638 235.620,168.161 236.790,168.800 238.000 C 169.439 239.210,169.962 240.020,169.962 239.800 C 169.962 239.580,169.439 238.410,168.800 237.200 C 168.161 235.990,167.638 235.180,167.638 235.400 M279.606 235.900 C 279.617 236.447,280.353 237.381,280.588 237.146 C 280.903 236.831,280.401 235.600,279.957 235.600 C 279.761 235.600,279.603 235.735,279.606 235.900 M234.480 237.811 C 233.472 239.885,233.448 240.000,234.024 240.000 C 234.257 240.000,234.336 239.820,234.200 239.600 C 234.064 239.380,234.154 239.200,234.400 239.200 C 234.646 239.200,234.736 239.020,234.600 238.800 C 234.464 238.580,234.554 238.400,234.800 238.400 C 235.046 238.400,235.136 238.220,235.000 238.000 C 234.864 237.780,234.905 237.600,235.091 237.600 C 235.277 237.600,235.457 237.240,235.490 236.800 C 235.575 235.667,235.470 235.773,234.480 237.811 M178.000 236.981 C 178.000 237.492,178.973 239.200,179.264 239.200 C 179.705 239.200,179.689 239.033,179.136 237.819 C 178.741 236.952,178.000 236.405,178.000 236.981 M224.418 238.766 C 224.173 239.225,224.139 239.600,224.343 239.600 C 224.754 239.600,225.322 238.388,225.042 238.108 C 224.944 238.011,224.664 238.307,224.418 238.766 M281.600 238.357 C 281.600 238.801,282.831 239.303,283.146 238.988 C 283.273 238.861,283.112 238.589,282.788 238.384 C 282.040 237.911,281.600 237.901,281.600 238.357 M125.236 240.600 C 126.377 242.621,126.400 242.649,126.398 241.967 C 126.397 241.655,125.932 240.860,125.364 240.200 L 124.332 239.000 125.236 240.600 M284.800 239.526 C 284.800 239.935,286.444 240.490,286.749 240.184 C 287.004 239.930,286.750 239.745,285.700 239.423 C 285.204 239.270,284.800 239.317,284.800 239.526 M180.031 241.100 C 181.412 243.410,181.769 243.607,180.755 241.500 C 180.252 240.455,179.682 239.600,179.488 239.600 C 179.294 239.600,179.538 240.275,180.031 241.100 M223.800 240.400 C 223.936 240.620,223.846 240.800,223.600 240.800 C 223.354 240.800,223.264 240.980,223.400 241.200 C 223.536 241.420,223.446 241.600,223.200 241.600 C 222.954 241.600,222.864 241.780,223.000 242.000 C 223.136 242.220,223.027 242.400,222.757 242.400 C 222.487 242.400,222.378 242.511,222.514 242.648 C 222.650 242.784,222.500 243.157,222.181 243.476 C 221.549 244.108,221.411 244.800,221.917 244.800 C 222.192 244.800,224.400 240.703,224.400 240.191 C 224.400 240.086,224.209 240.000,223.976 240.000 C 223.743 240.000,223.664 240.180,223.800 240.400 M114.900 241.344 C 114.115 241.733,113.661 242.400,114.181 242.400 C 114.692 242.400,116.400 241.427,116.400 241.136 C 116.400 240.722,116.061 240.769,114.900 241.344 M107.200 245.118 C 104.497 246.432,104.619 246.353,104.893 246.626 C 105.017 246.750,106.352 246.219,107.859 245.446 C 111.041 243.813,110.469 243.529,107.200 245.118 M125.494 245.703 L 124.788 247.000 125.594 246.056 C 126.280 245.252,126.646 244.394,126.300 244.403 C 126.245 244.404,125.882 244.989,125.494 245.703 M230.475 246.619 C 229.270 249.100,229.405 249.447,230.646 247.061 C 231.201 245.994,231.587 245.053,231.503 244.970 C 231.419 244.886,230.957 245.628,230.475 246.619 M300.800 245.400 C 302.626 246.103,303.345 246.093,301.800 245.386 C 301.140 245.083,300.330 244.842,300.000 244.848 C 299.670 244.855,300.030 245.103,300.800 245.400 M311.146 246.041 C 310.566 246.679,310.220 247.200,310.376 247.200 C 310.768 247.200,312.577 245.241,312.368 245.043 C 312.276 244.954,311.726 245.404,311.146 246.041 M101.200 248.200 C 100.210 248.730,99.580 249.164,99.800 249.164 C 100.020 249.164,101.010 248.730,102.000 248.200 C 102.990 247.670,103.620 247.236,103.400 247.236 C 103.180 247.236,102.190 247.670,101.200 248.200 M117.600 250.000 C 116.390 250.639,115.580 251.162,115.800 251.162 C 116.020 251.162,117.190 250.639,118.400 250.000 C 119.610 249.361,120.420 248.838,120.200 248.838 C 119.980 248.838,118.810 249.361,117.600 250.000 M112.000 252.600 C 110.570 253.349,109.539 253.970,109.709 253.981 C 110.188 254.011,115.200 251.678,115.200 251.425 C 115.200 251.015,114.625 251.226,112.000 252.600 M103.700 256.488 C 102.367 257.131,102.608 257.603,104.000 257.078 C 104.660 256.828,105.200 256.484,105.200 256.312 C 105.200 255.907,104.810 255.953,103.700 256.488 M183.600 265.700 C 183.600 265.865,191.520 266.000,201.200 266.000 C 210.880 266.000,218.800 265.865,218.800 265.700 C 218.800 265.535,210.880 265.400,201.200 265.400 C 191.520 265.400,183.600 265.535,183.600 265.700 M174.414 271.000 C 174.395 271.698,175.968 274.000,176.464 274.000 C 176.731 274.000,176.582 273.605,176.124 273.100 C 175.676 272.605,175.110 271.840,174.867 271.400 C 174.623 270.960,174.420 270.780,174.414 271.000 M13.619 274.200 C 13.609 274.794,14.323 275.810,14.574 275.559 C 14.694 275.440,14.529 274.995,14.209 274.571 C 13.888 274.147,13.622 273.980,13.619 274.200 M195.500 277.499 C 198.635 277.567,203.765 277.567,206.900 277.499 C 210.035 277.432,207.470 277.376,201.200 277.376 C 194.930 277.376,192.365 277.432,195.500 277.499 M214.278 278.566 C 214.895 279.097,215.487 279.445,215.594 279.339 C 215.812 279.121,213.978 277.623,213.478 277.609 C 213.300 277.604,213.660 278.035,214.278 278.566 M16.014 280.300 C 16.022 280.465,16.281 281.050,16.590 281.600 C 17.137 282.573,17.150 282.576,17.091 281.700 C 17.057 281.205,16.877 280.800,16.691 280.800 C 16.505 280.800,16.464 280.620,16.600 280.400 C 16.736 280.180,16.657 280.000,16.424 280.000 C 16.191 280.000,16.006 280.135,16.014 280.300 M383.400 280.400 C 383.536 280.620,383.495 280.800,383.309 280.800 C 383.123 280.800,382.943 281.205,382.909 281.700 C 382.850 282.576,382.863 282.573,383.410 281.600 C 384.093 280.385,384.133 280.000,383.576 280.000 C 383.343 280.000,383.264 280.180,383.400 280.400 M17.200 282.989 C 17.200 283.525,19.008 286.800,19.303 286.800 C 19.492 286.800,19.558 286.944,19.450 287.119 C 19.212 287.505,19.870 288.663,20.162 288.371 C 20.446 288.087,17.955 282.800,17.537 282.800 C 17.352 282.800,17.200 282.885,17.200 282.989 M381.280 284.611 C 380.304 286.619,380.258 286.800,380.720 286.800 C 380.999 286.800,382.800 283.500,382.800 282.989 C 382.800 282.258,382.017 283.094,381.280 284.611 M215.391 284.028 C 215.247 284.483,214.560 285.202,213.864 285.626 C 213.169 286.050,212.801 286.398,213.046 286.399 C 213.291 286.399,213.968 286.026,214.549 285.569 C 215.745 284.628,216.645 283.200,216.041 283.200 C 215.828 283.200,215.536 283.572,215.391 284.028 M23.400 294.800 C 23.741 295.460,24.111 296.000,24.221 296.000 C 24.331 296.000,24.141 295.460,23.800 294.800 C 23.459 294.140,23.089 293.600,22.979 293.600 C 22.869 293.600,23.059 294.140,23.400 294.800 M376.200 294.800 C 375.859 295.460,375.669 296.000,375.779 296.000 C 375.889 296.000,376.259 295.460,376.600 294.800 C 376.941 294.140,377.131 293.600,377.021 293.600 C 376.911 293.600,376.541 294.140,376.200 294.800 M26.401 300.126 C 26.399 300.915,33.175 311.758,33.479 311.454 C 33.585 311.348,32.931 310.170,32.025 308.836 C 31.119 307.502,29.483 304.924,28.390 303.105 C 27.296 301.287,26.401 299.947,26.401 300.126 M372.299 301.962 C 371.706 303.017,370.127 305.547,368.789 307.585 C 367.451 309.622,366.434 311.367,366.529 311.462 C 366.710 311.643,369.793 306.962,372.232 302.800 C 373.025 301.447,373.607 300.274,373.525 300.192 C 373.444 300.111,372.892 300.907,372.299 301.962 M35.037 314.200 C 35.397 314.750,35.855 315.200,36.055 315.200 C 36.255 315.200,36.124 314.750,35.763 314.200 C 35.403 313.650,34.945 313.200,34.745 313.200 C 34.545 313.200,34.676 313.650,35.037 314.200 M364.281 314.213 C 363.886 314.756,363.730 315.200,363.935 315.200 C 364.140 315.200,364.603 314.750,364.963 314.200 C 365.811 312.907,365.224 312.918,364.281 314.213 M42.383 323.951 C 43.966 325.958,45.348 327.600,45.454 327.600 C 45.917 327.600,40.555 320.696,39.902 320.451 C 39.683 320.369,40.800 321.944,42.383 323.951 M358.185 322.486 C 356.342 324.910,355.890 325.600,356.144 325.600 C 356.244 325.600,357.246 324.430,358.370 323.000 C 359.494 321.570,360.269 320.400,360.092 320.400 C 359.915 320.400,359.057 321.338,358.185 322.486 M46.007 328.244 C 46.010 328.440,47.105 329.770,48.440 331.200 C 51.035 333.980,50.523 333.024,47.700 329.818 C 46.765 328.756,46.003 328.048,46.007 328.244 M352.819 329.305 L 351.895 330.600 353.026 329.512 C 353.649 328.914,354.064 328.331,353.950 328.217 C 353.836 328.103,353.327 328.593,352.819 329.305 M350.229 332.319 L 349.087 333.800 350.423 332.513 C 351.158 331.805,351.672 331.138,351.565 331.031 C 351.458 330.925,350.857 331.504,350.229 332.319 M54.019 337.500 C 55.644 339.205,57.053 340.690,57.151 340.800 C 57.248 340.910,57.178 340.730,56.995 340.400 C 56.350 339.238,51.912 334.400,51.491 334.400 C 51.257 334.400,52.394 335.795,54.019 337.500 M345.779 337.100 L 343.460 339.800 346.130 337.212 C 347.598 335.788,348.800 334.573,348.800 334.512 C 348.800 333.918,347.708 334.854,345.779 337.100 M62.445 345.868 C 64.179 347.555,65.690 348.843,65.804 348.730 C 65.999 348.534,59.885 342.800,59.482 342.800 C 59.377 342.800,60.711 344.181,62.445 345.868 M336.800 345.978 C 335.370 347.271,334.300 348.430,334.422 348.554 C 334.545 348.677,335.800 347.613,337.211 346.189 C 340.399 342.972,340.223 342.882,336.800 345.978 M67.487 350.423 C 68.195 351.158,68.862 351.672,68.969 351.565 C 69.075 351.458,68.496 350.857,67.681 350.229 L 66.200 349.087 67.487 350.423 M332.015 350.416 C 331.253 351.067,330.815 351.600,331.040 351.600 C 331.266 351.600,331.968 351.060,332.600 350.400 C 334.055 348.881,333.803 348.888,332.015 350.416 M70.488 353.019 C 71.086 353.645,71.682 354.052,71.811 353.922 C 71.940 353.793,71.451 353.281,70.723 352.784 L 69.400 351.880 70.488 353.019 M329.000 353.012 C 328.340 353.553,327.994 353.997,328.230 353.998 C 328.467 353.999,329.083 353.550,329.600 353.000 C 330.785 351.738,330.548 351.743,329.000 353.012 M74.400 356.140 C 74.400 356.243,75.570 357.246,77.000 358.370 C 78.430 359.494,79.600 360.252,79.600 360.055 C 79.600 359.858,78.655 358.988,77.500 358.123 C 75.091 356.318,74.400 355.876,74.400 356.140 M322.970 357.835 C 321.666 358.844,320.533 359.854,320.452 360.079 C 320.370 360.305,321.495 359.553,322.952 358.408 C 325.318 356.548,325.892 356.000,325.470 356.000 C 325.398 356.000,324.273 356.826,322.970 357.835 M84.400 363.747 C 84.400 363.865,85.210 364.519,86.200 365.200 C 87.190 365.881,87.998 366.295,87.995 366.119 C 87.992 365.944,87.317 365.350,86.495 364.800 C 84.748 363.631,84.400 363.457,84.400 363.747 M314.043 364.444 C 312.796 365.456,313.113 365.771,314.400 364.800 C 314.943 364.390,315.301 363.968,315.194 363.862 C 315.087 363.756,314.570 364.018,314.043 364.444 M88.400 366.561 C 88.400 367.002,99.558 373.776,99.832 373.501 C 99.927 373.407,99.118 372.847,98.036 372.258 C 96.953 371.669,94.427 370.110,92.422 368.793 C 88.922 366.495,88.400 366.205,88.400 366.561 M309.200 367.710 C 308.210 368.410,305.697 370.022,303.615 371.292 C 301.534 372.561,300.024 373.600,300.261 373.600 C 300.693 373.600,310.669 367.477,311.380 366.775 C 312.232 365.934,310.904 366.503,309.200 367.710 M104.000 375.787 C 104.000 375.897,104.900 376.443,106.000 377.000 C 107.100 377.557,108.000 377.923,108.000 377.813 C 108.000 377.703,107.100 377.157,106.000 376.600 C 104.900 376.043,104.000 375.677,104.000 375.787 M294.700 376.229 C 293.205 377.040,293.296 377.378,294.800 376.600 C 295.460 376.259,296.000 375.894,296.000 375.790 C 296.000 375.532,295.957 375.547,294.700 376.229 M111.366 379.824 C 112.633 381.090,119.200 383.920,119.200 383.200 C 119.200 382.980,119.065 382.843,118.900 382.896 C 118.735 382.949,116.951 382.139,114.936 381.096 C 111.014 379.066,110.384 378.841,111.366 379.824 M284.600 381.268 C 282.702 382.256,282.601 382.335,282.885 382.618 C 283.168 382.901,286.800 381.141,286.800 380.720 C 286.800 380.241,286.364 380.350,284.600 381.268 M280.800 383.309 C 280.800 383.495,280.620 383.536,280.400 383.400 C 280.180 383.264,280.000 383.343,280.000 383.576 C 280.000 384.133,280.385 384.093,281.600 383.410 C 282.573 382.863,282.576 382.850,281.700 382.909 C 281.205 382.943,280.800 383.123,280.800 383.309 M187.700 399.876 C 188.085 399.976,188.715 399.976,189.100 399.876 C 189.485 399.775,189.170 399.693,188.400 399.693 C 187.630 399.693,187.315 399.775,187.700 399.876 M210.900 399.876 C 211.285 399.976,211.915 399.976,212.300 399.876 C 212.685 399.775,212.370 399.693,211.600 399.693 C 210.830 399.693,210.515 399.775,210.900 399.876 " stroke="none" fill="#c9c9c9" fill-rule="evenodd"></path><path id="path1" d="M189.400 0.385 C 181.025 0.861,165.049 2.752,164.018 3.389 C 163.849 3.493,163.011 3.686,162.155 3.818 C 160.165 4.124,159.624 4.228,158.400 4.538 C 157.850 4.678,156.950 4.875,156.400 4.977 C 155.850 5.079,152.970 5.802,150.000 6.585 C 78.610 25.390,24.722 79.634,6.333 151.200 C 4.290 159.150,4.223 159.443,3.813 162.155 C 3.684 163.011,3.493 163.849,3.389 164.018 C 3.052 164.562,1.634 174.812,0.956 181.600 C 0.159 189.581,0.043 209.009,0.748 216.400 C 1.405 223.284,2.746 233.484,3.236 235.320 C 3.459 236.157,3.720 237.417,3.815 238.120 C 4.253 241.354,7.757 254.703,10.013 261.727 C 29.251 321.648,78.019 370.698,137.200 389.653 C 139.510 390.393,141.490 391.089,141.600 391.199 C 141.710 391.310,142.070 391.422,142.400 391.450 C 142.730 391.477,145.755 392.256,149.122 393.180 C 152.489 394.105,155.729 394.944,156.322 395.045 C 156.915 395.146,157.940 395.398,158.600 395.604 C 175.991 401.047,218.808 400.970,242.200 395.452 C 298.768 382.110,342.791 350.289,372.008 301.625 C 381.752 285.394,392.607 258.122,395.024 243.800 C 395.135 243.140,395.396 242.060,395.603 241.400 C 398.273 232.898,400.410 206.348,399.635 191.300 C 399.016 179.282,397.024 163.123,395.603 158.600 C 395.396 157.940,395.134 156.860,395.022 156.200 C 394.150 151.059,389.190 135.232,385.523 125.886 C 364.028 71.104,316.985 27.362,260.400 9.545 C 258.750 9.025,257.340 8.464,257.266 8.298 C 257.192 8.131,256.993 8.081,256.823 8.186 C 256.653 8.291,255.903 8.195,255.157 7.973 C 253.736 7.551,241.585 4.449,240.200 4.155 C 239.760 4.062,238.770 3.887,238.000 3.766 C 237.230 3.646,235.970 3.391,235.200 3.199 C 226.901 1.134,202.546 -0.362,189.400 0.385 M204.000 87.933 C 206.317 89.610,206.399 90.180,206.399 104.713 C 206.400 119.477,206.303 120.139,203.924 121.590 C 201.392 123.133,198.208 122.290,197.006 119.757 C 195.947 117.524,196.123 91.059,197.209 89.277 C 198.675 86.873,201.706 86.273,204.000 87.933 M162.710 95.865 C 164.114 96.905,164.113 96.902,169.419 110.450 C 174.426 123.232,174.768 124.905,172.801 126.999 C 170.936 128.985,167.501 129.034,165.703 127.101 C 164.381 125.679,155.064 101.326,155.136 99.482 C 155.289 95.582,159.567 93.539,162.710 95.865 M252.455 99.131 C 254.846 101.808,253.997 104.406,244.128 124.600 C 241.260 130.469,239.470 131.725,236.192 130.169 C 233.105 128.705,232.593 125.579,234.739 121.313 C 235.379 120.041,237.826 114.770,240.176 109.600 C 245.263 98.412,246.051 97.388,249.321 97.702 C 250.951 97.859,251.570 98.141,252.455 99.131 M124.240 121.559 C 126.072 122.919,142.388 139.342,143.345 140.789 C 145.698 144.344,141.456 149.962,137.285 148.814 C 136.129 148.496,133.543 146.206,125.600 138.463 L 115.400 128.521 115.400 126.234 C 115.400 121.485,120.506 118.785,124.240 121.559 M284.296 121.139 C 286.342 122.246,286.957 126.275,285.352 128.057 C 280.320 133.641,265.503 147.926,264.549 148.111 C 260.701 148.857,257.241 144.891,258.848 141.574 C 259.563 140.097,269.680 129.486,275.241 124.380 L 279.563 120.412 281.482 120.533 C 282.537 120.600,283.803 120.872,284.296 121.139 M204.984 143.174 C 205.111 143.379,205.796 143.455,206.507 143.343 C 213.703 142.205,229.874 150.416,237.374 159.015 C 243.073 165.549,250.150 179.183,248.632 180.702 C 248.508 180.825,248.595 181.153,248.824 181.429 C 249.053 181.705,249.305 182.860,249.384 183.996 C 249.462 185.131,249.633 186.166,249.763 186.297 C 250.154 186.688,250.024 194.411,249.579 197.200 C 247.877 207.876,241.076 226.232,230.858 247.726 L 228.421 252.851 228.385 262.403 C 228.333 276.511,231.118 275.200,201.200 275.200 C 171.149 275.200,174.124 276.804,174.025 260.554 L 173.958 249.568 169.819 241.084 C 162.113 225.290,154.616 206.309,153.908 200.800 C 153.838 200.250,153.667 199.620,153.530 199.400 C 152.972 198.507,152.319 191.116,152.603 188.913 C 152.767 187.641,152.957 186.060,153.025 185.400 C 154.305 172.981,162.508 159.298,173.206 151.737 C 178.598 147.925,190.742 143.073,193.249 143.729 C 193.662 143.837,194.000 143.738,194.000 143.510 C 194.000 143.256,194.623 143.178,195.600 143.309 C 196.480 143.427,197.301 143.361,197.424 143.162 C 197.720 142.683,204.687 142.693,204.984 143.174 M306.972 152.947 C 309.012 154.872,309.070 157.907,307.100 159.690 C 305.075 161.523,283.010 172.069,280.703 172.306 C 277.901 172.594,275.391 170.134,275.699 167.401 C 276.033 164.431,276.733 163.801,282.922 160.891 C 286.045 159.423,291.570 156.744,295.200 154.937 C 303.135 150.987,304.626 150.735,306.972 152.947 M198.157 152.869 C 198.045 153.051,197.356 153.200,196.628 153.200 C 176.651 153.200,157.108 180.415,163.595 199.200 C 163.785 199.750,164.339 201.550,164.827 203.200 C 167.086 210.850,173.769 226.750,179.831 238.900 L 182.975 245.200 202.028 245.200 L 221.080 245.200 223.402 240.300 C 231.691 222.807,239.580 201.362,239.596 196.276 C 239.598 195.658,239.735 195.236,239.900 195.338 C 240.065 195.440,240.200 193.488,240.200 191.000 C 240.200 188.512,240.065 186.560,239.900 186.662 C 239.735 186.764,239.600 186.317,239.600 185.668 C 239.600 172.130,222.384 154.922,207.285 153.368 C 206.028 153.239,204.730 153.035,204.400 152.914 C 203.404 152.551,198.376 152.515,198.157 152.869 M107.800 166.999 C 113.960 169.165,119.090 171.041,119.200 171.169 C 119.310 171.296,119.670 171.457,120.000 171.527 C 124.943 172.576,123.904 180.800,118.829 180.800 C 116.638 180.800,92.193 172.321,90.911 171.116 C 88.718 169.057,88.859 165.831,91.229 163.837 C 93.185 162.191,95.241 162.583,107.800 166.999 M318.282 198.181 C 319.587 199.693,319.832 201.661,318.941 203.471 C 317.655 206.086,316.428 206.489,309.269 206.652 C 305.821 206.730,299.499 206.883,295.221 206.991 C 286.612 207.209,286.281 207.136,284.782 204.678 C 283.830 203.117,283.797 201.948,284.654 200.143 C 285.844 197.635,286.338 197.542,301.183 197.037 C 315.666 196.544,316.944 196.629,318.282 198.181 M116.114 204.061 C 120.172 206.233,118.415 213.027,113.744 213.223 C 107.963 213.464,99.604 213.729,95.000 213.816 C 91.920 213.875,88.995 214.051,88.500 214.208 C 87.967 214.377,87.600 214.326,87.600 214.084 C 87.600 213.859,87.242 213.768,86.805 213.883 C 85.713 214.168,83.028 211.501,83.312 210.414 C 83.424 209.987,83.309 209.540,83.058 209.419 C 82.714 209.255,82.714 209.145,83.058 208.981 C 83.309 208.860,83.424 208.413,83.312 207.986 C 82.960 206.641,85.720 204.244,87.266 204.553 C 87.988 204.698,88.747 204.610,89.066 204.345 C 89.448 204.028,91.265 203.950,94.981 204.092 C 98.316 204.219,100.495 204.145,100.745 203.895 C 100.993 203.647,103.228 203.564,106.592 203.679 C 109.691 203.784,112.135 203.705,112.264 203.496 C 112.516 203.089,114.972 203.450,116.114 204.061 M290.869 231.650 C 294.021 232.778,297.050 233.885,297.600 234.112 C 298.150 234.338,298.780 234.564,299.000 234.613 C 299.981 234.834,309.876 238.522,310.875 239.039 C 313.985 240.647,313.843 245.682,310.639 247.407 C 309.090 248.241,306.684 248.078,304.200 246.972 C 303.320 246.579,302.371 246.216,302.091 246.163 C 301.578 246.067,287.837 241.149,283.406 239.476 C 279.479 237.992,278.127 234.911,280.112 231.965 C 282.093 229.025,283.421 228.986,290.869 231.650 M124.724 239.210 C 127.394 240.838,127.776 244.567,125.493 246.712 C 124.215 247.913,100.263 259.200,98.993 259.200 C 95.225 259.200,92.787 254.710,94.875 251.617 C 95.654 250.464,97.170 249.586,104.004 246.336 C 122.148 237.705,122.216 237.681,124.724 239.210 M184.000 260.000 L 184.000 265.200 201.400 265.200 L 218.800 265.200 218.800 260.000 L 218.800 254.800 201.400 254.800 L 184.000 254.800 184.000 260.000 M215.205 278.620 C 217.418 280.834,217.062 284.513,214.466 286.277 C 213.342 287.039,194.580 287.608,190.502 287.003 C 185.770 286.302,184.174 280.662,187.983 278.099 L 189.366 277.168 201.676 277.284 L 213.986 277.400 215.205 278.620 " stroke="none" fill="#040404" fill-rule="evenodd"></path><path id="path2" d="M192.705 0.283 C 193.202 0.379,193.922 0.375,194.305 0.275 C 194.687 0.175,194.280 0.096,193.400 0.101 C 192.520 0.105,192.207 0.187,192.705 0.283 M205.905 0.283 C 206.402 0.379,207.122 0.375,207.505 0.275 C 207.887 0.175,207.480 0.096,206.600 0.101 C 205.720 0.105,205.407 0.187,205.905 0.283 M246.000 5.600 C 246.550 5.776,247.360 5.920,247.800 5.920 C 248.433 5.920,248.392 5.854,247.600 5.600 C 247.050 5.424,246.240 5.280,245.800 5.280 C 245.167 5.280,245.208 5.346,246.000 5.600 M149.401 6.307 C 148.082 6.652,147.182 6.990,147.401 7.058 C 147.621 7.125,149.060 6.841,150.600 6.426 C 152.140 6.012,153.040 5.674,152.600 5.676 C 152.160 5.678,150.721 5.962,149.401 6.307 M249.000 6.196 C 249.768 6.582,254.990 7.944,255.137 7.796 C 255.219 7.714,254.322 7.374,253.143 7.041 C 250.781 6.372,248.373 5.881,249.000 6.196 M143.000 8.214 C 141.995 8.698,141.963 8.753,142.800 8.551 C 143.350 8.419,143.971 8.150,144.180 7.955 C 144.698 7.471,144.414 7.533,143.000 8.214 M334.600 52.400 C 335.459 53.280,336.252 54.000,336.362 54.000 C 336.472 54.000,335.859 53.280,335.000 52.400 C 334.141 51.520,333.348 50.800,333.238 50.800 C 333.128 50.800,333.741 51.520,334.600 52.400 M64.175 53.300 L 63.000 54.600 64.300 53.425 C 65.512 52.330,65.784 52.000,65.475 52.000 C 65.406 52.000,64.821 52.585,64.175 53.300 M52.975 64.500 L 51.800 65.800 53.100 64.625 C 54.312 63.530,54.584 63.200,54.275 63.200 C 54.206 63.200,53.621 63.785,52.975 64.500 M347.400 65.200 C 348.259 66.080,349.052 66.800,349.162 66.800 C 349.272 66.800,348.659 66.080,347.800 65.200 C 346.941 64.320,346.148 63.600,346.038 63.600 C 345.928 63.600,346.541 64.320,347.400 65.200 M349.600 67.725 C 349.600 67.794,350.185 68.379,350.900 69.025 L 352.200 70.200 351.025 68.900 C 349.930 67.688,349.600 67.416,349.600 67.725 M200.241 87.133 C 200.128 87.317,200.559 87.467,201.200 87.467 C 201.841 87.467,202.272 87.317,202.159 87.133 C 202.045 86.950,201.614 86.800,201.200 86.800 C 200.786 86.800,200.355 86.950,200.241 87.133 M206.180 104.800 C 206.180 112.390,206.234 115.495,206.299 111.700 C 206.365 107.905,206.365 101.695,206.299 97.900 C 206.234 94.105,206.180 97.210,206.180 104.800 M165.029 100.000 C 165.176 100.550,165.464 101.270,165.667 101.600 C 165.925 102.017,165.957 101.895,165.771 101.200 C 165.624 100.650,165.336 99.930,165.133 99.600 C 164.875 99.183,164.843 99.305,165.029 100.000 M253.400 102.438 C 253.400 103.077,253.535 103.600,253.700 103.600 C 253.865 103.600,254.000 103.161,254.000 102.624 C 254.000 102.087,253.865 101.564,253.700 101.462 C 253.535 101.360,253.400 101.799,253.400 102.438 M247.381 116.837 C 247.029 117.518,246.812 118.145,246.899 118.232 C 246.986 118.319,247.356 117.762,247.722 116.995 C 248.544 115.270,248.259 115.138,247.381 116.837 M133.400 130.800 C 138.456 135.860,142.683 140.000,142.793 140.000 C 142.903 140.000,138.856 135.860,133.800 130.800 C 128.744 125.740,124.517 121.600,124.407 121.600 C 124.297 121.600,128.344 125.740,133.400 130.800 M269.594 129.900 L 264.200 135.400 269.700 130.006 C 274.809 124.994,275.381 124.400,275.094 124.400 C 275.036 124.400,272.561 126.875,269.594 129.900 M166.221 127.634 C 166.620 128.280,169.289 128.793,169.962 128.355 C 170.516 127.994,170.506 127.969,169.885 128.163 C 169.492 128.286,168.461 128.141,167.592 127.842 C 166.724 127.543,166.107 127.449,166.221 127.634 M283.375 130.100 L 282.200 131.400 283.500 130.225 C 284.215 129.579,284.800 128.994,284.800 128.925 C 284.800 128.616,284.470 128.888,283.375 130.100 M237.063 130.500 C 237.312 130.905,239.102 130.883,239.356 130.471 C 239.468 130.290,238.957 130.155,238.220 130.171 C 237.483 130.187,236.962 130.335,237.063 130.500 M124.200 137.200 C 125.950 138.960,127.471 140.400,127.581 140.400 C 127.691 140.400,126.350 138.960,124.600 137.200 C 122.850 135.440,121.329 134.000,121.219 134.000 C 121.109 134.000,122.450 135.440,124.200 137.200 M8.067 143.180 C 7.833 143.851,7.727 144.400,7.831 144.400 C 8.101 144.400,8.856 142.322,8.657 142.124 C 8.567 142.033,8.301 142.508,8.067 143.180 M391.413 142.644 C 391.950 144.855,392.778 147.027,392.540 145.600 C 392.411 144.830,392.059 143.660,391.757 143.000 C 391.455 142.340,391.301 142.180,391.413 142.644 M268.786 144.700 L 266.600 147.000 268.900 144.814 C 271.037 142.782,271.383 142.400,271.086 142.400 C 271.024 142.400,269.989 143.435,268.786 144.700 M197.400 143.200 C 197.105 143.678,197.889 143.678,199.000 143.200 C 199.714 142.893,199.685 142.853,198.724 142.828 C 198.132 142.813,197.536 142.980,197.400 143.200 M203.400 143.200 C 204.511 143.678,205.295 143.678,205.000 143.200 C 204.864 142.980,204.268 142.813,203.676 142.828 C 202.715 142.853,202.686 142.893,203.400 143.200 M141.775 147.300 L 140.600 148.600 141.900 147.425 C 143.112 146.330,143.384 146.000,143.075 146.000 C 143.006 146.000,142.421 146.585,141.775 147.300 M6.071 150.498 C 5.592 152.408,5.216 154.203,5.236 154.486 C 5.256 154.768,5.701 153.380,6.226 151.400 C 6.750 149.420,7.126 147.626,7.061 147.413 C 6.995 147.200,6.550 148.588,6.071 150.498 M393.050 148.400 C 393.190 149.170,393.461 150.160,393.654 150.600 C 393.894 151.149,393.924 150.961,393.750 150.000 C 393.610 149.230,393.339 148.240,393.146 147.800 C 392.906 147.251,392.876 147.439,393.050 148.400 M137.554 148.871 C 138.300 149.080,139.062 149.098,139.250 148.910 C 139.437 148.723,138.829 148.552,137.895 148.530 L 136.200 148.490 137.554 148.871 M300.000 152.600 C 299.010 153.130,298.344 153.572,298.520 153.582 C 298.696 153.592,299.415 153.303,300.117 152.939 C 300.820 152.576,301.846 152.141,302.397 151.974 C 303.196 151.731,303.237 151.665,302.600 151.652 C 302.160 151.643,300.990 152.070,300.000 152.600 M303.600 151.755 C 303.600 151.840,304.130 151.987,304.779 152.082 C 305.427 152.177,305.867 152.108,305.755 151.928 C 305.557 151.607,303.600 151.450,303.600 151.755 M197.000 152.800 C 196.864 153.020,197.023 153.200,197.353 153.200 C 197.683 153.200,198.064 153.020,198.200 152.800 C 198.336 152.580,198.177 152.400,197.847 152.400 C 197.517 152.400,197.136 152.580,197.000 152.800 M204.200 152.800 C 204.336 153.020,204.842 153.197,205.324 153.194 C 206.036 153.189,206.088 153.115,205.600 152.800 C 204.812 152.291,203.885 152.291,204.200 152.800 M307.044 153.180 C 307.288 153.521,307.688 154.160,307.932 154.600 C 308.176 155.040,308.381 155.185,308.388 154.922 C 308.395 154.660,307.995 154.021,307.500 153.503 C 307.005 152.985,306.800 152.840,307.044 153.180 M235.000 156.800 C 236.083 157.900,237.060 158.800,237.170 158.800 C 237.280 158.800,236.483 157.900,235.400 156.800 C 234.317 155.700,233.340 154.800,233.230 154.800 C 233.120 154.800,233.917 155.700,235.000 156.800 M173.785 164.100 L 171.800 166.200 173.900 164.215 C 175.055 163.123,176.000 162.178,176.000 162.115 C 176.000 161.817,175.629 162.149,173.785 164.100 M89.369 166.583 C 89.233 167.123,89.285 168.055,89.484 168.652 C 89.794 169.581,89.846 169.438,89.846 167.669 C 89.846 165.373,89.735 165.121,89.369 166.583 M293.100 166.626 C 292.055 167.170,291.200 167.705,291.200 167.814 C 291.200 167.993,295.160 166.123,295.567 165.752 C 296.062 165.301,294.761 165.762,293.100 166.626 M116.609 170.361 C 116.824 170.571,117.540 170.871,118.200 171.028 C 119.748 171.395,119.400 171.054,117.609 170.449 C 116.844 170.190,116.394 170.150,116.609 170.361 M166.380 174.039 C 165.920 174.940,165.613 175.746,165.697 175.830 C 165.781 175.914,166.241 175.176,166.719 174.191 C 167.809 171.947,167.515 171.815,166.380 174.039 M246.028 173.000 C 246.028 173.220,246.286 173.850,246.600 174.400 C 246.914 174.950,247.172 175.220,247.172 175.000 C 247.172 174.780,246.914 174.150,246.600 173.600 C 246.286 173.050,246.028 172.780,246.028 173.000 M249.463 187.280 C 249.800 189.049,250.000 189.201,250.000 187.690 C 250.000 187.007,249.823 186.338,249.606 186.204 C 249.360 186.052,249.306 186.455,249.463 187.280 M152.528 191.200 C 152.528 192.630,152.601 193.215,152.689 192.500 C 152.778 191.785,152.778 190.615,152.689 189.900 C 152.601 189.185,152.528 189.770,152.528 191.200 M0.093 193.600 C 0.093 194.370,0.175 194.685,0.276 194.300 C 0.376 193.915,0.376 193.285,0.276 192.900 C 0.175 192.515,0.093 192.830,0.093 193.600 M399.693 193.600 C 399.693 194.370,399.775 194.685,399.876 194.300 C 399.976 193.915,399.976 193.285,399.876 192.900 C 399.775 192.515,399.693 192.830,399.693 193.600 M249.649 194.000 C 249.616 194.330,249.489 195.050,249.367 195.600 C 249.175 196.464,249.207 196.503,249.599 195.888 C 249.848 195.497,249.975 194.777,249.881 194.288 C 249.786 193.800,249.682 193.670,249.649 194.000 M152.893 195.600 C 152.893 196.370,152.975 196.685,153.076 196.300 C 153.176 195.915,153.176 195.285,153.076 194.900 C 152.975 194.515,152.893 194.830,152.893 195.600 M303.105 197.083 C 303.602 197.179,304.322 197.175,304.705 197.075 C 305.087 196.975,304.680 196.896,303.800 196.901 C 302.920 196.905,302.607 196.987,303.105 197.083 M153.200 198.176 C 153.200 198.713,153.347 199.244,153.528 199.355 C 153.708 199.467,153.777 199.027,153.682 198.379 C 153.472 196.949,153.200 196.835,153.200 198.176 M291.505 197.483 C 292.002 197.579,292.722 197.575,293.105 197.475 C 293.487 197.375,293.080 197.296,292.200 197.301 C 291.320 197.305,291.007 197.387,291.505 197.483 M112.200 203.600 C 112.060 203.827,112.396 204.000,112.976 204.000 C 113.539 204.000,114.000 203.820,114.000 203.600 C 114.000 203.380,113.651 203.200,113.224 203.200 C 112.797 203.200,112.336 203.380,112.200 203.600 M100.600 204.000 C 100.310 204.470,102.133 204.470,103.600 204.000 C 104.419 203.738,104.260 203.673,102.724 203.640 C 101.692 203.618,100.736 203.780,100.600 204.000 M89.000 204.400 C 88.710 204.870,90.533 204.870,92.000 204.400 C 92.819 204.138,92.660 204.073,91.124 204.040 C 90.092 204.018,89.136 204.180,89.000 204.400 M247.200 206.000 C 246.951 206.924,246.826 207.759,246.921 207.855 C 247.017 207.950,247.290 207.263,247.527 206.327 C 247.765 205.391,247.890 204.557,247.806 204.473 C 247.722 204.388,247.449 205.076,247.200 206.000 M399.693 206.400 C 399.693 207.170,399.775 207.485,399.876 207.100 C 399.976 206.715,399.976 206.085,399.876 205.700 C 399.775 205.315,399.693 205.630,399.693 206.400 M0.093 206.800 C 0.093 207.570,0.175 207.885,0.276 207.500 C 0.376 207.115,0.376 206.485,0.276 206.100 C 0.175 205.715,0.093 206.030,0.093 206.800 M313.305 206.287 C 313.914 206.379,314.814 206.377,315.305 206.282 C 315.797 206.187,315.300 206.111,314.200 206.114 C 313.100 206.117,312.697 206.195,313.305 206.287 M286.883 206.860 C 287.167 207.040,288.390 207.176,289.600 207.162 C 292.258 207.132,291.842 206.921,288.683 206.696 C 287.389 206.604,286.594 206.676,286.883 206.860 M301.300 206.676 C 301.685 206.776,302.315 206.776,302.700 206.676 C 303.085 206.575,302.770 206.493,302.000 206.493 C 301.230 206.493,300.915 206.575,301.300 206.676 M307.111 206.693 C 308.051 206.778,309.491 206.777,310.311 206.691 C 311.130 206.605,310.360 206.536,308.600 206.537 C 306.840 206.539,306.170 206.609,307.111 206.693 M295.300 207.091 C 296.125 207.178,297.475 207.178,298.300 207.091 C 299.125 207.005,298.450 206.934,296.800 206.934 C 295.150 206.934,294.475 207.005,295.300 207.091 M166.830 210.000 C 166.828 210.576,167.957 212.866,167.986 212.346 C 167.994 212.206,167.737 211.486,167.416 210.746 C 167.094 210.006,166.831 209.670,166.830 210.000 M109.000 213.200 C 107.917 213.476,107.975 213.507,109.600 213.525 C 110.590 213.535,111.760 213.389,112.200 213.200 C 113.245 212.751,110.765 212.751,109.000 213.200 M97.600 213.600 C 96.771 213.865,96.908 213.926,98.400 213.954 C 99.390 213.973,100.470 213.813,100.800 213.600 C 101.549 213.116,99.112 213.116,97.600 213.600 M87.600 214.000 C 87.600 214.506,88.417 214.506,89.200 214.000 C 89.668 213.698,89.557 213.611,88.700 213.606 C 88.095 213.603,87.600 213.780,87.600 214.000 M233.244 217.244 C 232.998 217.951,232.866 218.600,232.952 218.685 C 233.038 218.771,233.309 218.262,233.556 217.556 C 233.802 216.849,233.934 216.200,233.848 216.115 C 233.762 216.029,233.491 216.538,233.244 217.244 M231.600 221.284 C 231.600 221.404,231.328 222.154,230.995 222.951 C 230.662 223.748,230.479 224.400,230.589 224.400 C 230.906 224.400,232.033 221.500,231.805 221.272 C 231.692 221.159,231.600 221.165,231.600 221.284 M287.600 230.733 C 287.930 230.936,288.650 231.224,289.200 231.371 C 289.895 231.557,290.017 231.525,289.600 231.267 C 289.270 231.064,288.550 230.776,288.000 230.629 C 287.305 230.443,287.183 230.475,287.600 230.733 M293.200 232.733 C 293.530 232.936,294.250 233.224,294.800 233.371 C 295.495 233.557,295.617 233.525,295.200 233.267 C 294.870 233.064,294.150 232.776,293.600 232.629 C 292.905 232.443,292.783 232.475,293.200 232.733 M126.558 243.724 L 126.517 245.400 126.921 244.083 C 127.163 243.295,127.180 242.622,126.963 242.407 C 126.746 242.193,126.583 242.725,126.558 243.724 M299.200 245.133 C 299.530 245.336,300.250 245.624,300.800 245.771 C 301.495 245.957,301.617 245.925,301.200 245.667 C 300.870 245.464,300.150 245.176,299.600 245.029 C 298.905 244.843,298.783 244.875,299.200 245.133 M5.236 245.514 C 5.182 246.285,6.923 253.035,7.061 252.587 C 7.126 252.374,6.750 250.580,6.226 248.600 C 5.701 246.620,5.256 245.232,5.236 245.514 M172.800 247.200 C 173.249 248.080,173.706 248.800,173.816 248.800 C 173.926 248.800,173.649 248.080,173.200 247.200 C 172.751 246.320,172.294 245.600,172.184 245.600 C 172.074 245.600,172.351 246.320,172.800 247.200 M305.400 247.386 C 306.060 247.704,307.230 247.950,308.000 247.932 L 309.400 247.900 307.800 247.623 C 306.920 247.471,305.750 247.225,305.200 247.077 C 304.399 246.861,304.438 246.923,305.400 247.386 M174.175 259.600 C 174.175 265.430,174.231 267.815,174.299 264.900 C 174.367 261.985,174.367 257.215,174.299 254.300 C 174.231 251.385,174.175 253.770,174.175 259.600 M393.029 251.429 C 392.881 252.015,392.838 252.572,392.932 252.666 C 393.027 252.760,393.224 252.358,393.371 251.771 C 393.519 251.185,393.562 250.628,393.468 250.534 C 393.373 250.440,393.176 250.842,393.029 251.429 M228.179 252.509 C 228.072 252.790,228.033 256.975,228.093 261.809 L 228.202 270.600 228.401 261.300 C 228.596 252.195,228.578 251.472,228.179 252.509 M391.893 255.493 C 391.542 256.755,391.322 257.855,391.404 257.937 C 391.486 258.019,391.850 257.063,392.213 255.813 C 392.577 254.563,392.797 253.464,392.703 253.370 C 392.609 253.276,392.245 254.231,391.893 255.493 M183.775 254.521 C 183.665 254.808,183.631 257.373,183.701 260.221 L 183.826 265.400 183.913 260.100 L 184.000 254.800 201.400 254.800 C 212.733 254.800,218.800 254.661,218.800 254.400 C 218.800 253.741,184.028 253.861,183.775 254.521 M8.067 256.820 C 8.301 257.492,8.567 257.967,8.657 257.876 C 8.856 257.678,8.101 255.600,7.831 255.600 C 7.727 255.600,7.833 256.149,8.067 256.820 M227.516 272.313 L 226.832 273.800 227.616 272.856 C 228.047 272.336,228.400 271.661,228.400 271.356 C 228.400 270.533,228.270 270.673,227.516 272.313 M185.830 281.467 C 185.689 281.834,185.760 282.320,185.987 282.547 C 186.271 282.831,186.400 282.623,186.400 281.880 C 186.400 280.646,186.200 280.501,185.830 281.467 M213.834 286.300 C 213.669 286.465,208.284 286.703,201.867 286.829 L 190.200 287.057 201.881 287.029 C 210.660 287.007,213.685 286.876,214.061 286.500 C 214.335 286.225,214.464 286.000,214.347 286.000 C 214.229 286.000,213.999 286.135,213.834 286.300 M350.575 331.300 L 349.400 332.600 350.700 331.425 C 351.415 330.779,352.000 330.194,352.000 330.125 C 352.000 329.816,351.670 330.088,350.575 331.300 M347.381 334.900 L 345.800 336.600 347.500 335.019 C 349.081 333.548,349.384 333.200,349.081 333.200 C 349.016 333.200,348.251 333.965,347.381 334.900 M52.400 335.000 C 53.146 335.770,53.847 336.400,53.957 336.400 C 54.067 336.400,53.546 335.770,52.800 335.000 C 52.054 334.230,51.353 333.600,51.243 333.600 C 51.133 333.600,51.654 334.230,52.400 335.000 M334.581 347.700 L 333.000 349.400 334.700 347.819 C 336.281 346.348,336.584 346.000,336.281 346.000 C 336.216 346.000,335.451 346.765,334.581 347.700 M67.600 349.725 C 67.600 349.794,68.185 350.379,68.900 351.025 L 70.200 352.200 69.025 350.900 C 67.930 349.688,67.600 349.416,67.600 349.725 M330.975 350.900 L 329.800 352.200 331.100 351.025 C 331.815 350.379,332.400 349.794,332.400 349.725 C 332.400 349.416,332.070 349.688,330.975 350.900 M99.600 372.979 C 99.600 373.089,100.140 373.459,100.800 373.800 C 101.460 374.141,102.000 374.331,102.000 374.221 C 102.000 374.111,101.460 373.741,100.800 373.400 C 100.140 373.059,99.600 372.869,99.600 372.979 M255.200 392.026 C 253.716 392.531,253.456 392.698,254.400 392.540 C 255.770 392.311,258.590 391.259,257.800 391.272 C 257.580 391.275,256.410 391.615,255.200 392.026 M145.000 392.400 C 145.440 392.589,146.070 392.744,146.400 392.744 C 146.778 392.744,146.704 392.617,146.200 392.400 C 145.760 392.211,145.130 392.056,144.800 392.056 C 144.422 392.056,144.496 392.183,145.000 392.400 M147.800 393.146 C 148.240 393.339,149.230 393.610,150.000 393.750 C 150.961 393.924,151.149 393.894,150.600 393.654 C 150.160 393.461,149.170 393.190,148.400 393.050 C 147.439 392.876,147.251 392.906,147.800 393.146 M251.000 393.200 C 250.496 393.417,250.422 393.544,250.800 393.544 C 251.130 393.544,251.760 393.389,252.200 393.200 C 252.704 392.983,252.778 392.856,252.400 392.856 C 252.070 392.856,251.440 393.011,251.000 393.200 M192.900 399.876 C 193.285 399.976,193.915 399.976,194.300 399.876 C 194.685 399.775,194.370 399.693,193.600 399.693 C 192.830 399.693,192.515 399.775,192.900 399.876 M205.700 399.876 C 206.085 399.976,206.715 399.976,207.100 399.876 C 207.485 399.775,207.170 399.693,206.400 399.693 C 205.630 399.693,205.315 399.775,205.700 399.876 " stroke="none" fill="#565656" fill-rule="evenodd"></path><path id="path3" d="M131.672 11.659 C 130.501 12.109,129.612 12.545,129.695 12.629 C 129.879 12.813,133.447 11.487,133.848 11.085 C 134.243 10.690,134.088 10.731,131.672 11.659 M266.215 11.141 C 266.704 11.585,269.278 12.455,269.487 12.247 C 269.573 12.161,268.786 11.798,267.737 11.440 C 266.689 11.083,266.004 10.948,266.215 11.141 M341.200 58.505 C 343.730 61.086,345.868 63.199,345.952 63.199 C 346.372 63.202,341.104 57.457,339.749 56.434 C 339.337 56.123,338.460 55.406,337.800 54.840 C 337.140 54.274,338.670 55.923,341.200 58.505 M61.000 55.789 C 58.472 57.951,57.103 59.342,55.639 61.237 C 54.891 62.207,56.196 61.113,58.539 58.807 C 60.883 56.501,62.800 54.566,62.800 54.507 C 62.800 54.285,62.558 54.458,61.000 55.789 M196.580 104.600 C 196.580 112.080,196.634 115.083,196.699 111.274 C 196.765 107.465,196.765 101.345,196.699 97.674 C 196.633 94.003,196.579 97.120,196.580 104.600 M130.200 128.000 C 131.728 129.540,133.069 130.800,133.179 130.800 C 133.289 130.800,132.128 129.540,130.600 128.000 C 129.072 126.460,127.731 125.200,127.621 125.200 C 127.511 125.200,128.672 126.460,130.200 128.000 M269.800 130.000 C 267.167 132.640,265.103 134.800,265.213 134.800 C 265.323 134.800,267.567 132.640,270.200 130.000 C 272.833 127.360,274.897 125.200,274.787 125.200 C 274.677 125.200,272.433 127.360,269.800 130.000 M283.381 129.700 L 281.800 131.400 283.500 129.819 C 285.081 128.348,285.384 128.000,285.081 128.000 C 285.016 128.000,284.251 128.765,283.381 129.700 M12.400 129.684 C 12.400 129.804,12.128 130.554,11.795 131.351 C 11.462 132.148,11.279 132.800,11.389 132.800 C 11.706 132.800,12.833 129.900,12.605 129.672 C 12.492 129.559,12.400 129.565,12.400 129.684 M387.818 131.300 C 387.968 131.795,388.255 132.376,388.456 132.591 C 388.657 132.806,388.619 132.401,388.372 131.691 C 387.865 130.238,387.397 129.908,387.818 131.300 M120.815 133.419 C 121.098 133.759,121.885 134.412,122.564 134.869 C 123.714 135.643,123.697 135.600,122.327 134.250 C 120.857 132.804,119.841 132.245,120.815 133.419 M130.383 142.900 C 132.041 144.666,132.400 144.984,132.400 144.683 C 132.400 144.619,131.545 143.764,130.500 142.783 L 128.600 141.000 130.383 142.900 M268.587 144.500 L 266.200 147.000 268.700 144.613 C 270.075 143.299,271.200 142.174,271.200 142.113 C 271.200 141.817,270.805 142.178,268.587 144.500 M200.000 143.216 C 199.267 143.439,199.632 143.531,201.367 143.560 C 202.668 143.582,203.658 143.536,203.567 143.457 C 203.142 143.094,200.899 142.942,200.000 143.216 M230.400 165.800 C 231.146 166.570,231.847 167.200,231.957 167.200 C 232.067 167.200,231.546 166.570,230.800 165.800 C 230.054 165.030,229.353 164.400,229.243 164.400 C 229.133 164.400,229.654 165.030,230.400 165.800 M107.200 167.400 C 109.026 168.103,109.745 168.093,108.200 167.386 C 107.540 167.083,106.730 166.842,106.400 166.848 C 106.070 166.855,106.430 167.103,107.200 167.400 M285.200 170.200 C 284.650 170.514,284.380 170.772,284.600 170.772 C 284.820 170.772,285.450 170.514,286.000 170.200 C 286.550 169.886,286.820 169.628,286.600 169.628 C 286.380 169.628,285.750 169.886,285.200 170.200 M276.767 170.545 C 277.300 171.201,278.800 172.193,278.800 171.889 C 278.800 171.813,278.215 171.322,277.500 170.799 C 276.696 170.210,276.416 170.113,276.767 170.545 M280.600 172.000 L 279.400 172.305 280.476 172.353 C 281.068 172.379,281.664 172.220,281.800 172.000 C 281.936 171.780,281.992 171.621,281.924 171.647 C 281.856 171.673,281.260 171.832,280.600 172.000 M240.000 189.400 C 240.000 189.730,240.180 190.000,240.400 190.000 C 240.620 190.000,240.800 189.730,240.800 189.400 C 240.800 189.070,240.620 188.800,240.400 188.800 C 240.180 188.800,240.000 189.070,240.000 189.400 M104.800 204.020 C 104.126 204.249,104.451 204.284,105.800 204.128 C 106.900 204.001,107.875 203.831,107.967 203.749 C 108.282 203.468,105.799 203.680,104.800 204.020 M93.000 204.400 C 91.337 204.823,92.974 204.842,95.000 204.423 C 96.345 204.145,96.409 204.092,95.400 204.093 C 94.740 204.094,93.660 204.232,93.000 204.400 M86.100 204.812 C 84.761 205.351,85.011 205.624,86.400 205.140 C 87.060 204.910,87.600 204.649,87.600 204.561 C 87.600 204.324,87.113 204.405,86.100 204.812 M94.600 213.600 L 93.000 213.886 94.400 213.903 C 95.170 213.913,96.250 213.776,96.800 213.600 C 98.085 213.188,96.899 213.188,94.600 213.600 M104.705 213.483 C 105.202 213.579,105.922 213.575,106.305 213.475 C 106.687 213.375,106.280 213.296,105.400 213.301 C 104.520 213.305,104.207 213.387,104.705 213.483 M173.325 226.427 C 173.796 227.542,174.241 228.276,174.314 228.057 C 174.444 227.668,172.936 224.400,172.626 224.400 C 172.540 224.400,172.854 225.312,173.325 226.427 M164.823 229.726 C 164.789 230.214,166.485 234.048,166.659 233.874 C 166.742 233.792,166.368 232.751,165.828 231.562 C 165.288 230.373,164.836 229.547,164.823 229.726 M280.460 237.580 C 280.548 237.844,280.750 238.047,280.910 238.030 C 281.388 237.981,281.296 237.432,280.780 237.260 C 280.516 237.172,280.372 237.316,280.460 237.580 M312.600 243.200 C 312.600 243.818,312.735 244.240,312.900 244.138 C 313.065 244.036,313.200 243.614,313.200 243.200 C 313.200 242.786,313.065 242.364,312.900 242.262 C 312.735 242.160,312.600 242.582,312.600 243.200 M121.100 248.629 C 119.549 249.470,119.725 249.761,121.300 248.959 C 122.808 248.193,123.075 247.994,122.567 248.016 C 122.365 248.025,121.705 248.301,121.100 248.629 M109.300 254.200 C 108.145 254.725,107.200 255.253,107.200 255.372 C 107.200 255.586,111.580 253.753,111.947 253.387 C 112.367 252.967,111.279 253.301,109.300 254.200 M95.200 257.102 C 95.200 257.322,95.470 257.726,95.800 258.000 C 96.135 258.278,96.400 258.321,96.400 258.098 C 96.400 257.878,96.130 257.474,95.800 257.200 C 95.465 256.922,95.200 256.879,95.200 257.102 M192.500 265.500 C 197.285 265.563,205.115 265.563,209.900 265.500 C 214.685 265.436,210.770 265.384,201.200 265.384 C 191.630 265.384,187.715 265.436,192.500 265.500 M11.370 267.514 C 11.701 268.453,12.172 269.531,12.416 269.910 C 12.809 270.520,12.829 270.508,12.589 269.800 C 11.677 267.108,11.455 266.560,11.129 266.204 C 10.930 265.986,11.039 266.576,11.370 267.514 M387.979 268.255 C 387.758 268.836,387.652 269.385,387.743 269.476 C 387.833 269.567,388.099 269.092,388.333 268.420 C 388.853 266.928,388.539 266.782,387.979 268.255 M189.900 274.700 C 196.115 274.762,206.285 274.762,212.500 274.700 C 218.715 274.638,213.630 274.587,201.200 274.587 C 188.770 274.587,183.685 274.638,189.900 274.700 M186.364 283.933 C 186.580 284.336,187.071 284.921,187.455 285.233 C 187.887 285.584,187.790 285.304,187.201 284.500 C 186.151 283.065,185.757 282.798,186.364 283.933 M195.924 286.699 C 199.073 286.767,204.113 286.767,207.124 286.699 C 210.136 286.631,207.560 286.576,201.400 286.576 C 195.240 286.576,192.776 286.632,195.924 286.699 M341.201 341.509 C 338.671 344.089,337.240 345.615,338.020 344.900 C 338.800 344.185,339.588 343.600,339.772 343.600 C 339.955 343.600,340.892 342.814,341.853 341.853 C 342.814 340.892,343.600 339.955,343.600 339.772 C 343.600 339.588,344.175 338.845,344.878 338.119 C 345.582 337.394,346.077 336.804,345.978 336.809 C 345.880 336.813,343.730 338.928,341.201 341.509 M55.620 338.679 C 56.379 339.602,57.419 340.907,57.930 341.579 C 58.442 342.250,59.065 342.800,59.315 342.800 C 59.565 342.800,60.542 343.557,61.485 344.483 C 62.428 345.409,63.200 346.084,63.199 345.983 C 63.199 345.882,61.183 343.820,58.720 341.400 C 56.256 338.980,54.861 337.755,55.620 338.679 M130.400 387.734 C 130.400 387.837,130.981 388.124,131.691 388.372 C 132.401 388.619,132.806 388.657,132.591 388.456 C 132.135 388.029,130.400 387.458,130.400 387.734 M268.100 388.012 C 266.761 388.551,267.011 388.824,268.400 388.340 C 269.060 388.110,269.600 387.849,269.600 387.761 C 269.600 387.524,269.113 387.605,268.100 388.012 " stroke="none" fill="#7c7c7c" fill-rule="evenodd"></path><path id="path4" d="M123.170 135.742 C 124.218 136.886,124.400 136.990,124.400 136.446 C 124.400 136.251,123.905 135.775,123.300 135.388 L 122.200 134.685 123.170 135.742 M190.100 275.100 C 196.205 275.162,206.195 275.162,212.300 275.100 C 218.405 275.038,213.410 274.987,201.200 274.987 C 188.990 274.987,183.995 275.038,190.100 275.100 " stroke="none" fill="#747474" fill-rule="evenodd"></path></g></svg>